# xmcd
#
# Track frame offsets: 
#        150
#        11165
#        22507
#        33870
#        46292
#        59657
#        71790
#        82807
#        93822
#        102815
#        116160
#        127760
#        137320
#        147590
#        157152
#        166992
#        176302
#        186702
#        199565
#        208540
#        217802
#        228390
#        240075
#        251010
#        264172
#        274105
#        287295
#        298705
#        309705
#        322132
#
# Disc length: 4436 seconds
#
# Revision: 2
# Processed by: cddbd v1.5.2PL0 Copyright (c) Steve Scherf et al.
# Submitted via: ExactAudioCopy v0.99pb4
#
DISCID=a111521e
DTITLE=Claude King - More Than Climbing That Mountain, Wolverton Mount
DTITLE=ain, That Is CD3
DYEAR=1900
DGENRE=Country
TTITLE0=Sam Hill
TTITLE1=Big Ole Shoulder
TTITLE2=Whirlpool (Of Your Love)
TTITLE3=When You Gotta Go (You Gotta Go)
TTITLE4=Tiger Woman
TTITLE5=Great Big Tears
TTITLE6=I Won't Be Long In Your Town
TTITLE7=Hold That Tiger (Tiger Rag)
TTITLE8=That's The Way The Wind Blows
TTITLE9=Little Buddy
TTITLE10=Come On Home
TTITLE11=Ancient History
TTITLE12=There Ain't Gonna Be No More
TTITLE13=It's Good To Have My Baby Back Home
TTITLE14=Catch A Little Raindrop
TTITLE15=Anna
TTITLE16=Great Big Tears
TTITLE17=The Right Place (At The Right Time)
TTITLE18=Little Things That Every Girl Should Know
TTITLE19=The Juggler
TTITLE20=The Watchman
TTITLE21=Laura (What's He Got That I Ain't Got)
TTITLE22=Good Bye My Love
TTITLE23=Green Green Grass Of Home
TTITLE24=Ruby Don't Take Your Love To Town
TTITLE25=Almost Persuaded
TTITLE26=Ninety-Nine Years
TTITLE27=Parchman Farm Blues
TTITLE28=Birmingham Bus Station
TTITLE29=Yellow Haired Woman
EXTD=
EXTT0=
EXTT1=
EXTT2=
EXTT3=
EXTT4=
EXTT5=
EXTT6=
EXTT7=
EXTT8=
EXTT9=
EXTT10=
EXTT11=
EXTT12=
EXTT13=
EXTT14=
EXTT15=
EXTT16=
EXTT17=
EXTT18=
EXTT19=
EXTT20=
EXTT21=
EXTT22=
EXTT23=
EXTT24=
EXTT25=
EXTT26=
EXTT27=
EXTT28=
EXTT29=
PLAYORDER=
